<?xml version="1.0" encoding="UTF-8"?>
<!-- Generator: Adobe Illustrator 19.2.1, SVG Export Plug-In . SVG Version: 6.00 Build 0)  -->
<svg version="1.1" id="레이어_1" xmlns="http://www.w3.org/2000/svg" xmlns:xlink="http://www.w3.org/1999/xlink" x="0px"
	 y="0px" viewBox="0 0 342.95999 108.74" enable-background="new 0 0 342.95999 108.74" xml:space="preserve">
<g>
	<g>
		<path fill="#CD313A" d="M133.86391,61.77111c12.4639,8.30958,29.30592,4.9425,37.61507-7.52137
			c8.31039-12.46414,25.14912-15.83372,37.61304-7.52435c12.46384,8.30989,15.83258,25.1495,7.52263,37.61425
			c0,0-0.00209,0.00993-0.00375,0.01657c5.75752-8.61372,9.11714-18.96777,9.11714-30.10647
			c0-29.95967-24.28799-54.24778-54.24782-54.24778c-18.82762,0-35.41232,9.59243-45.13983,24.1551l0,0
			C118.03126,36.62144,121.39918,53.46164,133.86391,61.77111z"/>
		<path fill="#0047A0" d="M171.48021,108.49803c18.82103,0,35.40202-9.58661,45.13068-24.14182
			c0.00166-0.00665,0.00375-0.01657,0.00375-0.01657c8.30995-12.46475,4.94121-29.30436-7.52263-37.61425
			c-12.46391-8.30936-29.30264-4.93979-37.61304,7.52435c-8.30914,12.46386-25.15117,15.83094-37.61507,7.52137
			c-12.46473-8.30947-15.83265-25.14967-7.52353-37.61404l0,0c-5.75253,8.61144-9.10841,18.96007-9.10841,30.09268
			C117.23197,84.21034,141.51921,108.49803,171.48021,108.49803z"/>
	</g>
	<linearGradient id="SVGID_1_" gradientUnits="userSpaceOnUse" x1="53.3441" y1="0.24195" x2="53.3441" y2="108.73804">
		<stop  offset="0" style="stop-color:#CD313A"/>
		<stop  offset="1" style="stop-color:#0047A0"/>
	</linearGradient>
	<path fill="url(#SVGID_1_)" d="M106.69044,62.85109c-0.00415-0.33289-0.00824-0.66589-0.01233-0.99878
		c-0.02466-0.22192-0.04932-0.44385-0.07397-0.66577c-0.12665-0.52557-0.17987-1.0528-0.36993-1.5166
		c-0.23352-0.56989-0.44385-1.13245-0.75214-1.62756c-0.65741-1.05603-1.47253-1.98126-2.47833-2.68799
		c-0.25354-0.17816-0.51892-0.31543-0.78912-0.48083c-1.14758-0.70239-2.66846-1.14978-4.53833-1.12097H55.26247v18.46905h29.91552
		c-2.8595,6.08643-6.61975,10.5575-11.28314,13.41266c-4.66333,2.8562-10.39312,4.28363-17.18829,4.28363
		c-10.45123,0-19.2392-3.46399-26.36243-10.39313c-7.12341-6.92804-10.685-15.37909-10.685-25.35077
		c0-9.64368,3.43201-17.83685,10.29663-24.57825c6.86426-6.7417,15.38007-10.11224,25.54919-10.11224
		c11.66717,0,21.88134,4.63464,30.64398,13.90424l13.84613-13.69379C93.67513,12.85938,87.21437,8.037,80.61348,5.22791
		c-7.81909-3.32343-16.22174-4.98596-25.21045-4.98596c-17.18188,0-31.1333,6.0163-41.85339,18.04761
		C4.51381,28.4018-0.00358,40.29383-0.00358,53.96333c0,9.97192,2.44574,19.26556,7.33826,27.87896
		c4.89172,8.61438,11.53992,15.25055,19.9436,19.90851c8.40289,4.65771,17.96539,6.98724,28.68652,6.98724
		c10.01776,0,18.74969-2.1308,26.19342-6.39038s13.5061-10.43921,18.18817-18.53925
		c3.2569-5.63507,5.35431-11.50244,6.3454-17.59119v-3.07055C106.68117,63.0525,106.69044,62.92701,106.69044,62.85109z"/>
	<linearGradient id="SVGID_2_" gradientUnits="userSpaceOnUse" x1="289.61591" y1="0.00195" x2="289.61591" y2="108.49805">
		<stop  offset="0" style="stop-color:#CD313A"/>
		<stop  offset="1" style="stop-color:#0047A0"/>
	</linearGradient>
	<path fill="url(#SVGID_2_)" d="M342.96225,62.61108c-0.00415-0.33289-0.00824-0.66589-0.01233-0.99878
		c-0.02466-0.22192-0.04932-0.44385-0.07397-0.66577c-0.12665-0.52557-0.17987-1.0528-0.36993-1.5166
		c-0.23352-0.56989-0.44385-1.13245-0.75214-1.62756c-0.65741-1.05603-1.47253-1.98126-2.47833-2.68799
		c-0.25354-0.17816-0.51892-0.31543-0.78912-0.48083c-1.14758-0.70239-2.66846-1.14978-4.53833-1.12097h-42.41382v18.46906h29.91553
		c-2.8595,6.08643-6.61975,10.5575-11.28314,13.41266c-4.66333,2.8562-10.39313,4.28363-17.18829,4.28363
		c-10.45123,0-19.2392-3.46399-26.36243-10.39313c-7.12341-6.92804-10.68501-15.37909-10.68501-25.35077
		c0-9.64368,3.43202-17.83685,10.29665-24.57825c6.86426-6.7417,15.38007-10.11224,25.54919-10.11224
		c11.66718,0,21.88135,4.63464,30.64398,13.90424l13.84613-13.69379c-6.31995-6.83459-12.7807-11.65698-19.38159-14.46606
		c-7.81909-3.32343-16.22174-4.98596-25.21045-4.98596c-17.18188,0-31.1333,6.0163-41.85341,18.04761
		C240.7856,28.1618,236.2682,40.05383,236.2682,53.72333c0,9.97192,2.44574,19.26556,7.33826,27.87897
		c4.89172,8.61438,11.53992,15.25055,19.94362,19.90851c8.40289,4.65771,17.96539,6.98724,28.68652,6.98724
		c10.01776,0,18.74969-2.1308,26.19342-6.39038s13.5061-10.43921,18.18817-18.53925
		c3.2569-5.63507,5.35431-11.50244,6.3454-17.59119v-3.07056C342.95297,62.8125,342.96225,62.68701,342.96225,62.61108z"/>
</g>
<g>
</g>
<g>
</g>
<g>
</g>
<g>
</g>
<g>
</g>
<g>
</g>
<g>
</g>
<g>
</g>
<g>
</g>
<g>
</g>
<g>
</g>
<g>
</g>
<g>
</g>
<g>
</g>
<g>
</g>
</svg>
