<?xml version="1.0" encoding="UTF-8"?>
<!-- Generator: Adobe Illustrator 19.2.1, SVG Export Plug-In . SVG Version: 6.00 Build 0)  -->
<svg version="1.1" id="레이어_1" xmlns="http://www.w3.org/2000/svg" xmlns:xlink="http://www.w3.org/1999/xlink" x="0px"
	 y="0px" viewBox="0 0 108.49606 108.49606" enable-background="new 0 0 108.49606 108.49606" xml:space="preserve">
<g>
	<path fill="#CD313A" d="M16.63194,61.76914c12.4639,8.30958,29.30593,4.9425,37.61507-7.52137
		c8.31039-12.46414,25.14912-15.83372,37.61304-7.52436c12.46383,8.30989,15.83258,25.14951,7.52263,37.61426
		c0,0-0.0021,0.00993-0.00375,0.01657c5.75752-8.61372,9.11714-18.96777,9.11714-30.10647C108.49606,24.28811,84.20807,0,54.24824,0
		C35.42062,0,18.83592,9.59243,9.10841,24.1551l0,0C0.79929,36.61947,4.16721,53.45967,16.63194,61.76914z"/>
	<path fill="#0047A0" d="M54.24824,108.49606c18.82102,0,35.40202-9.58661,45.13068-24.14182
		c0.00166-0.00665,0.00375-0.01657,0.00375-0.01657c8.30995-12.46475,4.9412-29.30436-7.52263-37.61426
		c-12.46391-8.30936-29.30265-4.93979-37.61304,7.52436c-8.30914,12.46386-25.15117,15.83094-37.61507,7.52137
		C4.16721,53.45967,0.79929,36.61947,9.10841,24.1551l0,0C3.35587,32.76654,0,43.11517,0,54.24778
		C0,84.20837,24.28724,108.49606,54.24824,108.49606z"/>
</g>
<g>
</g>
<g>
</g>
<g>
</g>
<g>
</g>
<g>
</g>
<g>
</g>
<g>
</g>
<g>
</g>
<g>
</g>
<g>
</g>
<g>
</g>
<g>
</g>
<g>
</g>
<g>
</g>
<g>
</g>
</svg>
